<?xml version="1.0" encoding="UTF-8"?><svg xmlns="http://www.w3.org/2000/svg" viewBox="0 0 33.05 32.94"><defs><style>.d{fill:#ef4136;}</style></defs><g id="a"/><g id="b"><g id="c"><g><path class="d" d="M31.93,7.81c1.23-1.19,1.11-3.24,1.1-3.32-.01-.2-.17-.36-.37-.38-.06,0-1.22-.11-2.31,.34,.12-.35,.2-.73,.2-1.12-.02-1.79-1.64-3.17-1.71-3.22-.15-.13-.38-.13-.53,0-.07,.06-1.67,1.47-1.66,3.25,0,.34,.07,.67,.17,.98-1.03-.4-2.07-.34-2.13-.34-.2,.01-.36,.17-.38,.37,0,.09-.19,2.12,1,3.35,.87,.9,2.2,1.08,2.88,1.1v.8h-11.32v-.8c.68,0,2.02-.14,2.92-1.02,1.23-1.19,1.11-3.24,1.1-3.32-.01-.2-.17-.36-.37-.38-.07,0-1.22-.11-2.31,.34,.12-.35,.2-.73,.2-1.12-.02-1.79-1.64-3.17-1.71-3.22-.16-.13-.38-.13-.53,0-.07,.06-1.67,1.47-1.66,3.25,0,.34,.07,.67,.17,.98-1.03-.4-2.07-.34-2.13-.34-.2,.01-.36,.17-.38,.37,0,.09-.19,2.12,1,3.35,.87,.9,2.2,1.08,2.88,1.1v.8H4.72v-.8c.68,0,2.02-.14,2.92-1.02,1.23-1.19,1.11-3.24,1.1-3.32-.01-.2-.17-.36-.37-.38-.07,0-1.22-.11-2.31,.34,.12-.35,.2-.73,.2-1.12-.02-1.79-1.64-3.17-1.71-3.22-.15-.13-.38-.13-.53,0-.07,.06-1.67,1.47-1.66,3.25,0,.34,.07,.67,.17,.98-1.03-.4-2.07-.34-2.13-.34-.2,.01-.36,.17-.38,.37,0,.09-.19,2.12,1,3.35,.87,.9,2.2,1.08,2.88,1.1v.8H.52c-.23,0-.41,.18-.41,.41s.18,.41,.41,.41H32.63c.23,0,.41-.18,.41-.41s-.18-.41-.41-.41h-3.62v-.8c.68,0,2.02-.14,2.92-1.02h0Zm-12.72-.59c-.68,.66-1.76,.77-2.33,.78,.03-.57,.17-1.64,.85-2.3,.68-.66,1.76-.77,2.33-.78-.03,.57-.17,1.64-.85,2.3h0ZM16.44,.99c.41,.43,1.14,1.33,1.15,2.34,0,1.01-.71,1.93-1.11,2.36-.41-.43-1.14-1.33-1.15-2.34,0-1.01,.71-1.93,1.11-2.36Zm-3.47,3.83c.57,.03,1.64,.17,2.3,.85,.66,.68,.77,1.76,.78,2.33-.57-.03-1.64-.17-2.3-.85-.66-.68-.77-1.76-.78-2.33Zm-5.9,2.4c-.68,.66-1.76,.77-2.33,.78,.03-.57,.17-1.64,.85-2.3,.68-.66,1.76-.77,2.33-.78-.03,.57-.17,1.64-.85,2.3h0ZM4.29,.99c.41,.43,1.14,1.33,1.15,2.34,0,1.01-.71,1.93-1.11,2.36-.41-.42-1.14-1.32-1.15-2.34,0-1.01,.71-1.93,1.11-2.36h0ZM.82,4.82c.57,.03,1.64,.17,2.3,.85,.66,.68,.77,1.76,.78,2.33-.57-.03-1.64-.17-2.3-.85-.66-.68-.77-1.76-.78-2.33Zm30.54,2.4c-.68,.66-1.76,.77-2.33,.78,.03-.56,.17-1.64,.85-2.3,.68-.66,1.76-.77,2.33-.78-.03,.57-.17,1.64-.85,2.3h0ZM28.58,.99c.41,.42,1.14,1.32,1.15,2.34,0,1.01-.71,1.93-1.11,2.36-.41-.42-1.14-1.32-1.15-2.34,0-1.01,.71-1.93,1.11-2.36h0Zm-3.47,3.83c.57,.03,1.64,.17,2.3,.85,.66,.68,.77,1.76,.78,2.33-.57-.03-1.64-.17-2.3-.85-.66-.68-.77-1.76-.78-2.33Z"/><path class="d" d="M31.93,19.06c1.23-1.19,1.11-3.24,1.1-3.32-.01-.2-.17-.36-.37-.38-.06,0-1.22-.11-2.31,.34,.12-.35,.2-.73,.2-1.12-.02-1.79-1.64-3.17-1.71-3.22-.15-.13-.38-.13-.53,0-.07,.06-1.67,1.47-1.66,3.25,0,.34,.07,.67,.17,.98-1.03-.4-2.07-.34-2.13-.34-.2,.01-.36,.17-.38,.37,0,.09-.19,2.12,1,3.35,.87,.9,2.2,1.08,2.88,1.1v.8h-11.32v-.8c.68,0,2.02-.14,2.92-1.02,1.23-1.19,1.11-3.24,1.1-3.32-.01-.2-.17-.36-.37-.38-.07,0-1.22-.11-2.31,.34,.12-.35,.2-.73,.2-1.12-.02-1.79-1.64-3.17-1.71-3.22-.16-.13-.38-.13-.53,0-.07,.06-1.67,1.47-1.66,3.25,0,.34,.07,.67,.17,.98-1.03-.4-2.07-.34-2.13-.34-.2,.01-.36,.17-.38,.37,0,.09-.19,2.12,1,3.35,.87,.9,2.2,1.08,2.88,1.1v.8H4.72v-.8c.68,0,2.02-.14,2.92-1.02,1.23-1.19,1.11-3.24,1.1-3.32-.01-.2-.17-.36-.37-.38-.07,0-1.22-.11-2.31,.34,.12-.35,.2-.73,.2-1.12-.02-1.79-1.64-3.17-1.71-3.22-.15-.13-.38-.13-.53,0-.07,.06-1.67,1.47-1.66,3.25,0,.34,.07,.67,.17,.98-1.03-.4-2.07-.34-2.13-.34-.2,.01-.36,.17-.38,.37,0,.09-.19,2.12,1,3.35,.87,.9,2.2,1.08,2.88,1.1v.8H.52c-.23,0-.41,.18-.41,.41s.18,.41,.41,.41H32.63c.23,0,.41-.18,.41-.41s-.18-.41-.41-.41h-3.62v-.8c.68,0,2.02-.14,2.92-1.02h0Zm-12.72-.59c-.68,.66-1.76,.77-2.33,.78,.03-.57,.17-1.64,.85-2.3,.68-.66,1.76-.77,2.33-.78-.03,.57-.17,1.64-.85,2.3Zm-2.78-6.23c.41,.43,1.14,1.33,1.15,2.34,0,1.02-.71,1.93-1.11,2.36-.41-.42-1.14-1.32-1.15-2.34,0-1.01,.71-1.93,1.11-2.36h0Zm-3.47,3.83c.57,.03,1.64,.17,2.3,.85,.66,.68,.77,1.76,.78,2.33-.57-.03-1.64-.17-2.3-.85-.66-.68-.77-1.76-.78-2.33Zm-5.9,2.4c-.68,.66-1.76,.77-2.33,.78,.03-.57,.17-1.64,.85-2.3,.68-.66,1.76-.77,2.33-.78-.03,.57-.17,1.64-.85,2.3h0Zm-2.78-6.23c.41,.43,1.14,1.33,1.15,2.34,0,1.01-.71,1.93-1.11,2.36-.41-.43-1.14-1.33-1.15-2.34,0-1.01,.71-1.93,1.11-2.36h0Zm-3.47,3.83c.57,.03,1.64,.17,2.3,.85,.66,.68,.77,1.76,.78,2.33-.57-.03-1.64-.17-2.3-.85-.66-.68-.77-1.76-.78-2.33Zm30.54,2.4c-.68,.66-1.76,.77-2.33,.78,.03-.56,.17-1.64,.85-2.3,.68-.66,1.76-.77,2.33-.78-.03,.57-.17,1.64-.85,2.3Zm-2.78-6.23c.41,.42,1.14,1.32,1.15,2.34,0,1.01-.71,1.93-1.11,2.36-.41-.43-1.14-1.33-1.15-2.34,0-1.01,.71-1.93,1.11-2.36h0Zm-3.47,3.83c.57,.03,1.64,.17,2.3,.85,.66,.68,.77,1.76,.78,2.33-.57-.03-1.64-.17-2.3-.85-.66-.68-.77-1.76-.78-2.33Z"/><path class="d" d="M3.9,31.32v.8H.51c-.23,0-.41,.18-.41,.41s.18,.41,.41,.41H32.63c.23,0,.41-.18,.41-.41s-.18-.41-.41-.41h-3.62v-.8c.68,0,2.02-.14,2.92-1.02,1.23-1.19,1.11-3.24,1.1-3.32-.01-.2-.17-.36-.37-.38-.06,0-1.22-.11-2.31,.34,.12-.35,.2-.73,.2-1.12-.02-1.79-1.64-3.17-1.71-3.23-.15-.13-.38-.13-.53,0-.07,.06-1.67,1.47-1.66,3.26,0,.34,.07,.67,.17,.98-1.03-.4-2.07-.34-2.13-.34-.2,.01-.36,.17-.38,.37,0,.09-.19,2.12,1,3.35,.87,.9,2.2,1.08,2.88,1.1v.8h-11.32v-.8c.68,0,2.02-.14,2.92-1.02,1.23-1.19,1.11-3.24,1.1-3.32-.01-.2-.17-.36-.37-.38-.07,0-1.22-.11-2.31,.34,.12-.35,.2-.73,.2-1.12-.02-1.79-1.64-3.17-1.71-3.23-.16-.13-.38-.13-.53,0-.07,.06-1.67,1.47-1.66,3.26,0,.34,.07,.67,.17,.98-1.03-.4-2.07-.34-2.13-.34-.2,.01-.36,.17-.38,.37,0,.09-.19,2.12,1,3.35,.87,.9,2.2,1.08,2.88,1.1v.8H4.72v-.8c.68,0,2.02-.14,2.92-1.02,1.23-1.19,1.11-3.24,1.1-3.32-.01-.2-.17-.36-.37-.38-.07,0-1.22-.11-2.31,.34,.12-.35,.2-.73,.2-1.12-.02-1.79-1.64-3.17-1.71-3.23-.15-.13-.38-.13-.53,0-.07,.06-1.67,1.47-1.66,3.26,0,.34,.07,.67,.17,.98-1.03-.4-2.07-.34-2.13-.34-.2,.01-.36,.17-.38,.37,0,.09-.19,2.12,1,3.35,.87,.9,2.2,1.08,2.88,1.1h0Zm27.46-1.6c-.68,.66-1.76,.77-2.33,.78,.03-.57,.17-1.64,.85-2.3,.68-.66,1.76-.77,2.33-.78-.03,.57-.17,1.64-.85,2.3h0Zm-2.78-6.23c.41,.42,1.14,1.32,1.15,2.34,0,1.01-.71,1.93-1.11,2.36-.41-.43-1.14-1.33-1.15-2.34,0-1.01,.71-1.93,1.11-2.36h0Zm-3.47,3.83c.57,.03,1.64,.17,2.3,.85,.66,.68,.77,1.76,.78,2.33-.57-.03-1.64-.17-2.3-.85-.66-.68-.77-1.76-.78-2.33Zm-5.9,2.4c-.68,.66-1.76,.77-2.33,.78,.03-.57,.17-1.64,.85-2.3,.68-.66,1.76-.77,2.33-.78-.03,.57-.17,1.64-.85,2.3Zm-2.78-6.23c.41,.43,1.14,1.33,1.15,2.34,0,1.01-.71,1.93-1.11,2.36-.41-.42-1.14-1.32-1.15-2.34,0-1.01,.71-1.93,1.11-2.36Zm-3.47,3.83c.56,.03,1.64,.17,2.3,.85,.66,.68,.77,1.76,.78,2.33-.57-.03-1.64-.17-2.3-.85-.66-.68-.77-1.76-.78-2.33Zm-5.9,2.4c-.68,.66-1.76,.77-2.33,.78,.03-.57,.17-1.64,.85-2.3,.68-.66,1.76-.77,2.33-.78-.03,.57-.17,1.64-.85,2.3h0Zm-2.78-6.23c.41,.43,1.14,1.33,1.15,2.34,0,1.01-.71,1.93-1.11,2.36-.41-.43-1.14-1.33-1.15-2.34,0-1.01,.71-1.93,1.11-2.36Zm-1.16,4.68c.66,.68,.77,1.76,.78,2.33-.57-.03-1.64-.17-2.3-.85-.66-.68-.77-1.76-.78-2.33,.57,.03,1.64,.17,2.3,.85Z"/></g></g></g></svg>