<?xml version="1.0" encoding="UTF-8"?><svg xmlns="http://www.w3.org/2000/svg" viewBox="0 0 42.38 34.58"><defs><style>.d{fill:none;stroke:#ef4136;stroke-miterlimit:10;}.e{fill:#ef4136;}</style></defs><g id="a"/><g id="b"><g id="c"><g><path class="e" d="M17.63,1.88c-.38,0-.72-.21-.88-.56-.15-.35-.08-.75,.18-1.02,.26-.27,.66-.36,1.02-.22,.35,.14,.58,.48,.59,.86,0,.51-.4,.93-.91,.94h0Z"/><path class="e" d="M18.67,3.56L20.97,.16l-.37-.16-2.17,2.24h-1.6L14.66,0l-.37,.16,2.3,3.4-.02,2.31-.67,5.61h.63l1.1-4.66,1.1,4.66h.63l-.67-5.61-.02-2.31Z"/><path class="e" d="M24.77,32.71c.38,0,.72,.23,.86,.57,.15,.35,.07,.75-.2,1.02-.27,.27-.67,.35-1.02,.2-.35-.15-.58-.49-.57-.86,0-.51,.42-.93,.93-.93h0Z"/><path class="e" d="M23.71,31.02l-2.3,3.4,.37,.16,2.17-2.25h1.6l2.17,2.25,.37-.16-2.3-3.4,.02-2.31,.67-5.61h-.63l-1.1,4.66-1.1-4.66h-.63l.67,5.61,.02,2.31Z"/><path class="e" d="M6.48,6.5c-.27,.27-.67,.35-1.02,.2-.35-.14-.58-.48-.58-.86s.23-.72,.58-.86c.35-.14,.75-.06,1.02,.2,.36,.36,.36,.95,0,1.32h0Z"/><path class="e" d="M8.42,6.94l-.78-4.03-.37,.15,.05,3.13-.56,.56h0l-.56,.56-3.13-.05-.15,.37,4.03,.78,1.62,1.64,3.49,4.44,.45-.45-2.51-4.07,4.07,2.52,.45-.45-4.44-3.49-1.64-1.62Z"/><path class="e" d="M35.9,28.08c.27-.27,.67-.35,1.02-.2,.35,.14,.58,.48,.58,.86s-.23,.72-.58,.86c-.35,.14-.75,.06-1.02-.2-.36-.36-.36-.95,0-1.32h0Z"/><path class="e" d="M33.96,27.5l.78,4.03,.37-.15-.05-3.13,1.13-1.13,3.13,.05,.15-.37-4.03-.78-1.62-1.64-3.49-4.44-.45,.45,2.52,4.07-4.08-2.52-.45,.45,4.44,3.49,1.64,1.62Z"/><path class="e" d="M1.88,17.65c0,.38-.23,.72-.58,.86-.35,.14-.75,.06-1.02-.2-.27-.27-.35-.67-.2-1.02,.14-.35,.48-.58,.86-.58,.25,0,.49,.1,.66,.27,.18,.18,.27,.41,.27,.66h0Z"/><path class="e" d="M3.56,16.59L.16,14.29,0,14.65l2.25,2.17v1.59l-2.25,2.17,.16,.37,3.4-2.3,2.3,.02,5.61,.67v-.63l-4.66-1.1,4.66-1.1v-.63l-5.61,.67-2.3,.02Z"/><path class="e" d="M40.5,16.93c0-.38,.23-.72,.58-.86,.35-.14,.75-.06,1.02,.2,.27,.27,.35,.67,.2,1.02-.15,.35-.49,.57-.86,.57-.25,0-.48-.1-.66-.27-.17-.17-.27-.41-.27-.66h0Z"/><path class="e" d="M38.82,18l3.4,2.3,.16-.37-2.25-2.17v-1.59l2.25-2.17-.16-.37-3.4,2.3-2.3-.02-5.61-.67v.63l4.66,1.1-4.66,1.1v.63l5.61-.67,2.3-.02Z"/><path class="e" d="M13.62,28.11c.27,.27,.35,.67,.2,1.02-.14,.35-.48,.58-.86,.58s-.72-.23-.86-.58c-.14-.35-.06-.75,.2-1.02,.17-.18,.41-.27,.66-.27s.48,.1,.66,.27h0Z"/><path class="e" d="M14.06,26.16l-4.03,.78,.15,.37,3.13-.05,.56,.56h0l.56,.56-.05,3.13,.37,.15,.78-4.03,1.64-1.62,4.44-3.49-.45-.45-4.08,2.52,2.52-4.07-.45-.45-3.49,4.44-1.62,1.64Z"/><path class="e" d="M35.87,5.8c-.36-.36-.36-.95,0-1.31,.36-.36,.95-.36,1.31,0,.36,.36,.36,.95,0,1.31-.36,.36-.95,.36-1.31,0h0Z"/><path class="e" d="M35.43,7.74l4.03-.78-.15-.37-3.13,.05-.56-.56-.56-.56,.05-3.13-.37-.15-.78,4.03-1.64,1.62-4.44,3.49,.45,.45,4.08-2.52-2.52,4.07,.45,.45,3.49-4.44,1.62-1.64Z"/><polyline class="d" points="2.89 27.33 16.46 17.52 24.26 16.65 29.45 .29"/></g></g></g></svg>