<?xml version="1.0" encoding="UTF-8"?><svg xmlns="http://www.w3.org/2000/svg" viewBox="0 0 38.7 30"><defs><style>.d{fill:#ef4136;}</style></defs><g id="a"/><g id="b"><g id="c"><path class="d" d="M28.6,0C24.46,0,20.9,2.5,19.35,6.08,17.79,2.5,14.24,0,10.1,0,4.52,0,0,4.52,0,10.09c0,3.32,1.63,6.24,4.1,8.08l15.24,11.82,15.25-11.82c2.48-1.84,4.1-4.76,4.1-8.08,0-5.57-4.52-10.09-10.09-10.09h0Zm.31,16.32h-5.33l-1.48-4-3.25,10-3.26-7.31-.33,.93h-5.47v-1.52h4.39l1.24-3.53,3.21,7.19,3.38-10.41,2.63,7.12h4.27v1.52h0Z"/></g></g></svg>