<?xml version="1.0" encoding="UTF-8"?><svg xmlns="http://www.w3.org/2000/svg" viewBox="0 0 300.45 179.94"><defs><style>.d,.e,.f{fill:none;stroke:#fff;stroke-miterlimit:10;}.e{stroke-width:.5px;}.f{stroke-width:.25px;}</style></defs><g id="a"/><g id="b"><g id="c"><g><path class="d" d="M299.98,.16c-1.9,5.45-4.12,7.15-5.96,7.57-2.24,.5-4.2-.84-5.73,.46-1.41,1.19-.55,3.01-2.06,4.13-1.46,1.08-2.81-.18-4.36,.92-1.56,1.11-.85,2.87-2.29,3.67-1.4,.77-2.4-.67-4.59,0-1.11,.34-1.02,.77-2.98,1.83-1.66,.9-1.86,.67-3.21,1.38-1.28,.67-3.64,1.9-4.36,4.13-.54,1.68,.33,2.39-.46,3.44-.58,.76-1.61,1.04-3.67,1.61-1.56,.42-1.75,.3-2.52,.69-1.49,.76-2.53,2.16-2.29,2.52,.2,.31,1.13-.38,1.6,0,.95,.76-.38,5.36-2.75,5.96-1.11,.28-1.66-.51-2.75,0-1.22,.57-2.06,2.29-2.06,2.29-.75,.19-1.86,.57-2.98,1.38-1.58,1.14-1.66,2.05-3.44,3.9-1.2,1.25-1.02,.69-3.67,2.98-2.03,1.76-2.59,2.48-3.9,2.75-1.18,.24-1.18-.24-2.52,0-2.21,.4-4.1,2.05-4.13,2.06-5.06-.92-6.7-.76-6.88-.23-.2,.57,1.33,1.58,1.15,1.83-.18,.25-1.63-.77-3.9-1.38-1.34-.36-1.46-.17-2.75-.46-1.57-.35-4.09-.91-5.04-2.52-1.32-2.23,.67-5.97,.69-5.96,.01,0-.13,1.8-.92,2.06-1.02,.34-3.19-1.83-3.9-4.36-.49-1.77,.09-2.44-.69-3.44-.74-.95-1.53-.68-3.44-1.83-.77-.47-1.75-1.06-2.52-2.06-1.26-1.64-.56-2.56-1.6-4.82-.74-1.59-1.16-1.28-2.98-3.9-1.64-2.36-2.39-4.19-2.52-4.13-.13,.06,.62,1.86,.69,1.83,.08-.03-.68-2.1-.69-4.36,0-.09,0-.23,0-.41,.03-.49,.13-2.53,.91-2.8,.68-.24,1.98,.81,1.83,1.38-.19,.74-2.68-.02-6.88,.92-2.14,.48-2.39,.87-3.44,.69-2.73-.48-4.48-3.79-4.36-3.9,.08-.08,1.3,1.22,1.38,1.15,.14-.14-3.9-4.59-3.9-4.59-.44-.38-1.68-1.34-3.44-1.38-1.95-.03-3.33,1.09-3.67,1.38-1.36,1.14-1.17,2.09-2.29,2.52-1.24,.48-1.91-.49-2.98,0-1.5,.68-2.02,3.43-1.38,3.9,.42,.3,1.26-.39,1.38-.23,.23,.34-3.63,3.24-3.9,3.44-1.97,1.47-2.53,1.72-3.21,1.83-1.3,.22-1.63-.3-2.75,0-1.44,.39-2.87,1.78-2.75,2.98,.12,1.19,1.69,1.41,1.6,2.52-.04,.53-.45,1.21-.52,2.27,0,.06,0,.17,.06,.25,.4,.46,2.58-.76,2.52-.92-.1-.27-7.08,2.56-7.57,1.61-.18-.35,.6-1.01,.46-1.15,0,0-.17-.17-3.44,2.29-.52,.65-1.41,1.55-2.75,2.06-.47,.18-1.08,.27-2.29,.46-2.11,.32-4.13,.46-4.13,.46-1.07,1.77-2.21,2.5-3.21,2.75-1.23,.31-1.99-.15-2.52,.46-.76,.86-.26,2.98-.02,3.62,.01,.03,.01,.03,.02,.05,.1,.68-4.61,.99-5.04,2.75-.29,1.15,1.5,1.97,1.15,3.21-.31,1.08-1.79,.84-2.29,2.06-.59,1.44,.68,3.65,.69,3.67-.07,.93-.25,2.21-.69,3.67-1.02,3.38-2.87,5.79-2.98,5.73-.09-.05,.91-1.93,.69-2.06-.26-.16-1.33,2.53-3.67,3.21-1.84,.54-2.69-.68-3.67,0-.95,.66-.94,2.89-.92,7.34,0,.82,.02,1.55-.23,2.52-.35,1.35-1,2.33-1.6,3.21-.48,.7-.46,.55-2.06,2.52-1.42,1.74-1.44,1.87-1.83,2.06-1.41,.7-3.44,.23-3.44,.23-.66,1.15-1.71,2.52-3.21,2.75-1.69,.26-2.39-1.18-3.9-.92-2.21,.39-3.43,3.94-4.13,5.96-.55,1.6-1.15,4.13-1.15,4.13-1.77,.87-2.34,1.8-2.52,2.52-.35,1.4,.65,2.38,0,3.44-.54,.88-1.79,1.1-2.06,1.15-1.24,.22-1.71-.38-2.29,0-.72,.46-.24,1.52-.92,2.75-.27,.5-.49,.58-2.29,1.83-1.39,.97-2.74,2-4.13,2.98-.45,.37-1.1,.92-1.83,1.61-.99,.92-1.48,1.38-1.83,1.83-1.73,2.21-1.31,5.23-1.15,6.42,.18,1.3,.33,2.29,1.15,2.98,.14,.12,1.39,1.17,2.54,.92,.09-.02,.16-.04,.21,0,.41,.28-1.47,2.47-1.38,5.04,.01,.32,.08,2.2,1.38,3.44,.98,.94,1.86,.75,2.75,1.83,.39,.47,.68,1.06,.92,2.29,.47,2.43,.04,3.87,0,5.5-.1,4.22,2.46,7.49,2.29,7.57-.07,.03-.34-.55-1.15-1.83-.88-1.41-1.21-1.77-1.15-1.83,.27-.26,6.42,5.73,6.42,5.73-.31,.68-.73,1.79-.92,3.21-.2,1.5-.4,3.06,.46,3.9,.97,.95,2.4,.11,2.98,.92,.71,.98-1.23,2.44-.92,4.59,.35,2.4,3.27,4.06,3.21,4.13-.04,.04-.91-.85-1.15-.69-.31,.21,.74,2.1,1.61,4.36,.77,2.02,1.17,3.73,1.38,4.82"/><path class="e" d="M155.52,105.87c-1.15,0-5.04-.46-5.04-.46l-5.04-.92-2.75,.46-.92,2.98-2.75,.23-2.52-2.98v-.92l-2.06-2.06-.23-2.29,2.29-1.61,.23-1.61-1.83-3.44-.23-5.5-1.61-.69-.92-2.29-.46-1.83v-1.61l-1.83-2.98-.46-1.83-1.38-3.44h-1.15l-.92-3.67-1.15-4.13-2.29-.92"/><path class="e" d="M88.56,67.81l2.29-.11,2.41,.34,2.64,1.61h1.38l1.38-1.49,1.72-1.38h2.87s.69-1.38,.8-1.95,2.87-1.61,2.87-1.61l2.29-1.15,3.55,.57,1.61-.11,.46-1.95h.92l1.26-2.52,1.83-2.52-.11-.8h1.26l1.95-.23,2.29-.69,1.95-2.06"/><path class="e" d="M101.4,152.08c.87-1.09,1.01-1.92,.92-2.52-.2-1.35-1.55-1.82-1.38-2.87,.1-.6,.56-.61,1.26-1.72,.09-.15,.54-.88,.8-1.83,.11-.41,.64-2.33-.23-4.13-.42-.87-.83-1.01-1.26-2.18-.28-.75-.42-1.13-.34-1.61,.2-1.24,1.56-1.21,2.18-2.64,.43-.99,.29-2.18-.11-2.98-.1-.2-.11-.16-1.03-1.38-1.06-1.4-1.16-1.58-1.15-1.83,.04-.78,1.02-.75,1.49-1.72,.7-1.44-.74-3.03,0-3.78,.41-.42,.94-.04,1.49-.57,.43-.42,.5-1.05,.57-1.72,.1-.97-.14-1.04,0-1.61,.2-.85,.79-.83,1.61-1.95,.88-1.2,.55-1.68,1.26-2.18,.89-.63,1.7-.08,2.18-.69,.4-.51-.1-.98,.11-2.18,.03-.14,.32-1.65,1.49-2.41,.56-.36,.89-.27,1.49-.46,2.17-.67,3.89-3.7,3.21-5.27-.29-.68-.86-.69-1.03-1.49-.15-.71,.1-1.59,.69-2.06,.28-.22,.65-.3,1.38-.46,1.25-.27,1.49-.09,1.72-.34,.53-.57-.51-1.66,0-2.64,.35-.68,.96-.37,1.72-1.15,.79-.82,1.43-4.31,1.15-3.21h0c-.08,1.21-.05,1.48,0,1.49,.15,.02,.96-2.66,.57-5.73-.11-.84-.27-1.48-.46-2.18-.76-2.88-1.37-2.88-1.61-4.59-.31-2.19,.64-2.56,0-4.24-.24-.63-.68-1.38-.34-1.95,.26-.45,.77-.37,.92-.8,.16-.46-.35-.73-.57-1.72-.08-.38-.25-1.12,.11-1.49,.33-.33,.76-.04,1.26-.34,.55-.33,.87-1.16,.69-1.49-.24-.45-1.64-.5-6.76,1.26"/><path class="e" d="M28.49,165.95c1.07-1.2,1.39-2.24,1.49-2.98,.11-.83-.06-1.36,.34-2.06,.51-.88,1.15-.7,1.49-1.38,.63-1.25-1.16-2.71-.57-3.67,.44-.71,1.55-.13,2.41-1.03,.48-.5,.27-.82,.8-2.29,.46-1.25,.73-2,1.38-2.41,.6-.38,1.01-.15,2.98,0,2.43,.18,3.65,.26,4.24-.46,.47-.57,.13-1.16,.8-1.83,.44-.44,.97-.59,1.38-.69,1.35-.34,1.72,.26,2.64,0,1.17-.33,.82-1.39,2.41-2.41,.94-.6,1.39-.45,2.41-1.26,.56-.45,.92-.74,1.15-1.26,.52-1.22-.42-2.09,.11-2.87,.46-.66,1.29-.25,1.83-.92,.62-.77-.23-1.58,.11-2.87,.22-.8,.74-1.17,3.67-3.32,1.38-1.01,1.54-1.31,2.18-1.61,1.38-.63,1.77-.21,2.75-.8,1.42-.86,1.25-2.13,2.41-2.41,.72-.17,.88,.29,2.06,.23,.47-.03,.8-.12,2.06-.57,1.77-.64,2.65-.96,2.87-1.15,.29-.25,1.24-1.19,1.15-3.55"/><path class="e" d="M51.19,179.94c0-.57,1.72-3.21,1.72-3.21l.8-2.75-.11-3.1,.8-1.95,1.72-1.83,.69-2.41-.8-4.93,1.72-1.83-.23-1.38-1.03-1.49,.69-2.87,.57-2.87,1.26-2.06,2.29,.23-.34-2.41-.92-2.18,.92-.8-.23-1.72,3.21-1.03-.46-2.75,1.61-.57,1.26-1.95-.57-2.29,1.03-1.03,1.26-.23h1.15v1.26l2.87-.92,.69,1.03,2.18,1.26,1.03-1.15,1.95-1.61"/><path class="e" d="M27.57,97.73c.23,1.68,.54,3.03,.8,4.01,.26,.97,.49,1.62,1.03,1.83,.31,.12,.49,.02,1.61-.23,1.93-.43,2.24-.32,2.41-.23,.61,.33,.45,.92,1.03,1.15,.59,.23,.9-.33,1.95-.34,.26,0,1.2-.01,1.72,.57,.47,.53,.28,1.18,.57,1.26,.44,.12,.92-1.32,1.61-1.26,.44,.04,.45,.64,1.26,1.15,.25,.16,.88,.55,1.38,.34,.74-.3,.6-1.66,1.03-1.72,.36-.05,.48,.89,1.38,1.72,.94,.87,1.54,.51,1.95,1.15,.68,1.05-.77,2.29-.11,3.67,.37,.78,1.18,1.14,1.72,1.38,1.44,.64,2.98,.4,2.98,.46,0,.05-.8-.05-.92,.23-.15,.37,.82,1.41,1.95,1.49,.42,.03,.86-.08,1.49-.46,1.76-1.05,1.56-2.11,2.75-2.87,1.76-1.12,3.64,.27,4.59-.92,.55-.69,.19-1.5,.8-1.83,.53-.29,.98,.24,2.06,.34,1.65,.16,3.15-.82,3.1-1.03-.04-.16-1,.04-1.03-.11-.04-.17,1.04-.73,2.29-.92,1.59-.24,2.01,.31,3.1,0,.86-.25,1.34-.82,2.29-1.95,1.73-2.06,1.35-2.83,2.52-3.55,1.34-.83,2.52-.23,3.1-1.15,.46-.73-.14-1.34,.34-1.95,.65-.8,1.93-.02,2.98-.92,.29-.25,.5-.7,.92-1.61,.39-.84,.38-1.07,.8-2.06,.43-.99,.64-1.49,.92-1.72,.75-.62,1.77-.28,3.21-.11,2.44,.28,3.25-.75,4.36-.11,.71,.4,1.07,1.1,1.26,1.61"/><path class="e" d="M18.74,144.39c.93,.31,2.48,.64,4.01,0,.75-.32,1.24-.76,2.18-1.61,1.86-1.68,1.72-2.25,2.87-2.87,.12-.07,1.84-.96,3.67-.34,1.04,.35,2.19,1.22,2.06,1.83-.1,.49-1,.74-1.03,.69-.04-.06,1.27-1.04,2.87-1.49,.76-.22,1.76-.5,2.41,0,.47,.36,.36,.83,.92,1.15,.42,.24,1.08,.31,1.49,0,.47-.36,.19-.92,.69-1.38,.4-.36,1.05-.43,1.49-.23,.45,.21,.45,.6,.8,1.03,.96,1.19,3.1,.94,3.1,1.03,0,.07-1.15,.05-1.15,0,0-.05,1.1,0,2.64-.34,.49-.11,.86-.23,1.61-.46,1.34-.42,2.64-.92,2.64-.92h0c.21-.96,.47-1.74,.69-2.29,.24-.6,.37-.95,.69-1.38,.52-.71,1.12-1.06,1.26-1.15,.49-.28,.96-.4,1.26-.46"/><path class="e" d="M96.93,71.71c1.11,.6,1.37,1.12,1.38,1.49,.01,.62-.66,.77-.92,1.72-.27,.98,.27,1.53-.11,1.95-.39,.43-1.05-.06-1.61,.34-.59,.42-.18,1.17-.57,2.52-.47,1.63-1.48,1.98-1.26,2.87,.13,.52,.55,.66,1.26,1.26,.63,.54,1.41,1.39,2.06,2.75"/><path class="e" d="M89.94,149.09c.15-.35,.35-.9,.46-1.61,.22-1.36-.15-1.69,.11-2.41,.47-1.28,1.94-1.06,2.29-2.18,.11-.36,.05-.64-.92-2.75-1.24-2.7-1.37-2.75-1.49-3.44-.08-.44-.05-1.36,0-3.21,.05-1.75,.11-1.8,0-2.18-.41-1.46-1.51-1.51-1.72-2.75-.18-1.06,.45-2.03,.69-2.41,.49-.76,.79-.68,1.6-1.72,.56-.71,.96-1.23,1.03-1.95,.08-.87-.41-1.09-.46-1.83-.09-1.45,1.61-3.21,3.44-3.67,1.84-.46,2.92,.61,3.67-.11,.57-.55,.44-1.64,.23-3.32-.07-.56-.1-.47-.46-2.41-.38-2.02-.41-2.4-.23-2.87,.35-.93,.99-.82,1.26-1.61,.11-.34,.22-1.01-1.49-3.78-1.28-2.08-1.67-2.24-1.95-3.32-.12-.47-.43-1.67,0-2.98,.42-1.29,1.17-1.52,1.38-2.87,.11-.69,0-1.22-.11-1.83-.14-.71-.47-1.9-1.38-3.21"/><path class="f" d="M168.93,122.72c1.03-.55,1.3-1.11,1.38-1.49,.26-1.31-1.54-2.04-1.49-3.78,.03-1.11,.78-1.13,.8-2.29,.02-1.13-.69-1.29-1.49-3.44-.31-.82-.57-1.55-.57-2.52,0-.96,.24-1.02,.34-2.18,.16-1.87-.43-2.27,0-3.1,.46-.88,1.67-1.45,2.64-1.26,1.01,.2,1.14,1.13,1.95,1.15,.68,.01,.97-.63,2.18-1.83,1.02-1.02,2.53-2.53,3.32-2.18,.66,.29,.72,1.79,.57,1.83-.17,.05-1.27-1.59-1.15-3.32,.09-1.38,.86-1.48,1.49-3.44,.41-1.29,.43-2.34,.46-4.01,.03-1.63,.04-2.44-.23-3.21-.54-1.53-1.38-1.72-1.49-3.1-.08-.94,.27-1.39-.11-1.95-.38-.56-1.14-.71-1.6-.8-.5-.1-.82-.07-1.72,0-1.59,.12-2.39,.17-2.75,.11-.49-.08-1.49-.24-2.18-1.03-.43-.49-.55-1.01-.8-2.06-.22-.91-.32-1.36-.23-1.95,.1-.63,.3-.67,.8-2.06,.26-.71,.38-1.07,.34-1.38,0,0-.06-.46-.8-1.61h0c-.18-.72-.36-1.91-.11-3.32,.16-.94,.57-1.74,1.38-3.32,.49-.96,.79-1.39,1.26-1.49,.53-.12,.93,.25,1.26,0,.3-.22,.08-.61,.34-1.15,.33-.68,1.09-.94,1.38-1.03,.61-.21,1.01-.11,2.06,0,2.08,.22,4.01,.23,4.01,.23h0c1.8,.16,3.19-.03,4.13-.23,.85-.18,.88-.28,1.49-.34,1.43-.14,1.92,.35,3.9,.46,.52,.03,.94,.02,1.72,0,.91-.02,1.4-.07,2.18-.11,.66-.04,.52-.02,3.32-.11,2.52-.08,2.71-.1,3.1-.23,.89-.29,1.66-.79,1.83-.57,.13,.15-.14,.56-.11,.57,.04,.02,.51-1.26,1.38-2.29,.1-.12,.83-.98,1.83-1.49,1.23-.62,2.22-.4,4.36-.23,3.7,.29,6.19,.05,6.19,.11,0,.04-1.13,.09-1.15,0-.02-.12,1.86-.12,3.44-1.15,.97-.63,1.57-1.48,1.95-2.18"/><path class="f" d="M133.62,58.41c.98-.52,1.75-1.01,2.29-1.38,1.61-1.09,1.77-1.48,1.83-1.72,.24-.95-.65-1.49-.34-2.06,.45-.85,2.63-.05,3.21-1.03,.09-.16,.06-.56,0-1.38-.11-1.37-.16-2.05-.34-2.52-.45-1.16-1.08-1.24-1.03-1.95,.05-.75,.77-.85,.8-1.61,.04-.77-.71-.91-.8-1.83-.08-.73,.32-1.36,.69-1.95,.48-.77,.79-.82,1.15-1.38,.32-.49,.62-1.3,.46-2.64"/><path class="f" d="M208.49,66.43c2.21,1.65,3.8,1.37,4.24,1.26,1.01-.24,1.84-.92,3.1-1.95,.5-.41,.98-.85,2.06-1.72,.52-.42,.95-.74,1.03-.8,2.21-1.66,6.66-1.92,6.65-2.06,0-.1-2.33,.12-2.41-.23-.08-.35,2.32-.65,4.01-2.64,.6-.7,.95-1.43,1.15-1.83,.59-1.22,.82-2.33,.92-3.1"/><path class="f" d="M.05,150.47c.54,.26,1.37,.58,2.41,.69,1.67,.18,2.11-.38,3.1,0,1.51,.58,1.86,2.45,2.52,2.29,.39-.09,.26-.74,.8-1.26,.24-.23,.74-.56,3.21-.34,0,0,1.24,.11,3.9,.57,2.02,.16,3.13,.84,3.78,1.49,.63,.62,1.1,1.49,2.06,1.61,.59,.07,1.12-.17,1.26-.23,.74-.34,.72-.75,1.38-1.15,.78-.47,1.93-.57,2.29-.11,.31,.38-.09,.94,.23,1.26,.27,.27,.76,.06,1.26,0,.61-.07,1.49,.03,2.64,.8"/></g></g></g></svg>