<?xml version="1.0" encoding="UTF-8"?><svg xmlns="http://www.w3.org/2000/svg" viewBox="0 0 26.38 26.2"><defs><style>.d{fill:#fff;}.e{fill:#ef4136;fill-rule:evenodd;}</style></defs><g id="a"/><g id="b"><g id="c"><g><path class="e" d="M8.16,13.1L0,4.99,5.02,0,13.19,8.11,21.35,0l5.02,4.99-8.16,8.11,8.16,8.11-5.02,4.99-8.16-8.11L5.02,26.2,0,21.21,8.16,13.1Z"/><path class="d" d="M13.17,15.16c-.54,0-1.16-.12-1.51-.48l-1.06,1.06c.52,.53,1.14,.77,1.86,.85v.8h1.47v-.85c1.06-.22,1.86-.92,1.86-2.04,0-.63-.14-1.13-.5-1.48-.29-.29-.72-.48-1.33-.56l-.82-.11c-.24-.03-.38-.11-.47-.2-.1-.1-.13-.23-.13-.31,0-.29,.24-.63,.82-.63,.29,0,.86-.03,1.28,.4l1.05-1.05c-.47-.47-1.04-.7-1.75-.77v-1h-1.47v1.1c-.97,.29-1.53,1.04-1.53,2,0,.58,.15,1.04,.47,1.36,.3,.31,.76,.51,1.36,.6l.82,.11c.22,.03,.36,.1,.45,.18,.09,.1,.13,.24,.13,.4,0,.39-.31,.61-.97,.61h0Z"/></g></g></g></svg>