<?xml version="1.0" encoding="UTF-8"?><svg xmlns="http://www.w3.org/2000/svg" viewBox="0 0 41.77 26.06"><defs><style>.d{fill:#ef4136;}</style></defs><g id="a"/><g id="b"><g id="c"><g><path class="d" d="M22.11,23.64c-.36-1.91-4.15-5.2-8.83-5.33-4.82-.13-9.12,3.68-9.15,5.52-.03,1.93,1.99,2.23,1.99,2.23,.15,0,2.18,0,4.65,0-.96-.76-1.59-1.92-1.59-3.24,0-2.29,1.86-4.15,4.15-4.15s4.15,1.86,4.15,4.15c0,1.31-.63,2.47-1.58,3.23,2.39,0,4.28,0,4.28,0,1.33,0,2.25-.75,1.94-2.4h0Z"/><path class="d" d="M15.7,6.49c-1.57-1.28-1.8-3.59-.52-5.15,1.27-1.56,3.58-1.79,5.15-.51,1.56,1.28,1.79,3.59,.52,5.15-1.28,1.56-3.59,1.79-5.15,.51h0Z"/><path class="d" d="M39.7,21.9h-8.3l6.25-6.82s.57-.62,.77-.93c.78-1.24,.75-2.75,.09-3.95h0c-.94-1.78-2.94-4.7-6.46-6.18-3.47-1.46-5.43-.94-6.51-.49-1.6,.66-2.63,1.76-3.28,2.77,0,0-3.52,6.16-3.52,6.16l-5.42,2.22c-.93,.38-1.38,1.45-.99,2.38,.29,.71,.97,1.13,1.69,1.13,.23,0,.46-.04,.69-.14l6-2.46s.05-.03,.08-.05c.11-.05,.21-.11,.3-.18,.05-.04,.1-.07,.14-.11,.09-.08,.17-.18,.25-.29,.02-.04,.06-.06,.08-.1l2.78-4.47v3.06l-3.5,4.83c-.63,.86-.43,2.07,.43,2.7,.34,.25,.74,.37,1.13,.37,.6,0,1.19-.28,1.57-.8l3.86-5.34c.24-.33,.37-.73,.37-1.13v-2.69c.25,.13,.5,.27,.74,.43,.54,.36,1.06,.85,1.53,1.32l-5.35,8.81c-.25,.38-.8,1.03-.49,2.41,.2,.89,1.23,1.68,2.05,1.68h13.01c1.15,0,2.08-.93,2.08-2.08,0-1.14-.93-2.07-2.08-2.07h0Z"/><path class="d" d="M11.68,7.31H7.65V3.28h-3.62V7.31H0v3.62H4.03v4.03h3.62v-4.03h4.03v-3.62Z"/><path class="d" d="M16.53,22.82c0-1.77-1.44-3.21-3.21-3.21s-3.21,1.44-3.21,3.21,1.44,3.21,3.21,3.21c1.77,0,3.21-1.44,3.21-3.21Z"/></g></g></g></svg>