<?xml version="1.0" encoding="UTF-8"?><svg xmlns="http://www.w3.org/2000/svg" viewBox="0 0 29.29 35.73"><defs><style>.d{fill:#ef4136;}</style></defs><g id="a"/><g id="b"><g id="c"><g><path class="d" d="M14.29,11.68L3.33,21.43c-.34,.3-.75,.52-1.19,.63v12.95c0,.39,.32,.71,.71,.71h7.14v-9.29c0-.39,.32-.71,.71-.71h7.14c.39,0,.71,.32,.71,.71v9.29h7.14c.39,0,.71-.32,.71-.71v-12.95c-.44-.11-.84-.33-1.19-.63L14.29,11.68Z"/><path class="d" d="M14.29,9.78l1.59,1.41c-.29-1.71-.09-3.25,0-3.82l-.64-.56c-.54-.49-1.36-.49-1.9,0l-6.91,6.14v-4.36c0-.22-.1-.43-.27-.56-.18-.14-.41-.19-.61-.13l-2.86,.71c-.32,.08-.54,.36-.54,.69v7.46l-1.66,1.48c-.59,.52-.64,1.42-.12,2.01,.53,.59,1.43,.64,2.02,.11L14.29,9.78Z"/><path class="d" d="M26.03,16.39c-.11,.05-.23,.1-.34,.14l-2.62,1.05,3.13,2.78c.27,.24,.61,.36,.95,.36,.39,0,.79-.16,1.07-.48,.52-.59,.46-1.49-.12-2.01l-2.07-1.84Z"/><path class="d" d="M28.81,8.27c-.29-.1-.61,0-.79,.24-.21,.28-.46,.55-.7,.79,.06-1.41-.26-3.51-2.23-5.22l-.14-.11c-1.38-1.21-2.03-1.84-1.61-3,.11-.3,0-.64-.26-.83-.26-.19-.62-.17-.87,.04-.04,.04-3.84,3.24-2.69,8.73-.3-.31-.61-.78-.84-1.48-.1-.31-.4-.51-.72-.49-.32,.02-.59,.25-.66,.57-.03,.16-.76,3.91,1.2,6.32,.59,.72,1.36,1.24,2.3,1.56,.59,.19,1.24,.31,1.97,.34-.64-.04-1.24-.46-1.55-1.1-.17-.35-.24-.73-.2-1.12,.13-.29,.31-.56,.52-.84,.43-.54,.62-1.27,.69-1.99,.17-1.01-.04-2.04-.05-2.06-.06-.31,.08-.63,.36-.78,.1-.06,.21-.09,.32-.09,.16,0,.33,.07,.46,.2,.06,.06,.89,.89,1.55,2.08,.44,.79,.81,1.74,.81,2.72s-.19,1.79-.51,2.45c1.79-.71,4.13-2.39,4.13-6.25,0-.31-.19-.58-.49-.68h0Z"/></g></g></g></svg>