<?xml version="1.0" encoding="UTF-8"?><svg xmlns="http://www.w3.org/2000/svg" viewBox="0 0 33.26 31.7"><defs><style>.d{fill:#ef4136;}</style></defs><g id="a"/><g id="b"><g id="c"><g><path class="d" d="M28.78,2.96c0,1.64-1.33,2.96-2.96,2.96s-2.96-1.33-2.96-2.96,1.33-2.96,2.96-2.96,2.96,1.33,2.96,2.96"/><path class="d" d="M13.12,6.69c0,1.14-.93,2.07-2.07,2.07s-2.07-.92-2.07-2.07,.92-2.07,2.07-2.07,2.07,.92,2.07,2.07"/><path class="d" d="M1.09,23.5h3.75c.44,0,.81-.25,.99-.62,.03-.06,.05-.12,.07-.18l1.29-4.43,2.45,2.98,.34,4.3s0,.08,0,.12v.06c.02,.22,.11,.42,.23,.58,.28,.44,.76,.73,1.32,.73h5.37c.63,.01,1.17-.36,1.42-.89,.04-.08,.08-.17,.1-.26l1.85-6.35,3.51,4.27,.51,6.42c.07,.82,.75,1.44,1.56,1.44,.04,0,.08,0,.13,0,.86-.07,1.51-.82,1.44-1.69l-.55-6.92c-.03-.36-.18-.69-.41-.94l-3.62-5.02,2.55-5.32,1,2.46c.16,.57,.69,.96,1.27,.96,1.02,0,2.11-.28,3.11-.47,1.15-.22,2.63-.53,2.46-1.87-.24-1.37-3.43-.51-4.73-.46l-1.8-4.45c-.43-1.07-2.04-1.81-3.13-1.43l-6.25,2.14c-.31,.07-.6,.26-.8,.55l-2.46,3.62c-.08,.12-.14,.23-.19,.34-.37,.05-.7,.1-.95,.11l-1.25-3.11c-.3-.75-1.42-1.26-2.18-1l-4.36,1.49c-.22,.05-.42,.18-.56,.38l-1.72,2.53c-.81,1.17,.76,1.99,1.43,1l1.51-2.3,1.66-.32-1.82,3.67c-.11,.21-.19,.48-.24,.79l-1.37,4.89H1.09C.49,21.32,0,21.81,0,22.41c0,.6,.49,1.09,1.09,1.1h0ZM10.76,12.87l.7,1.71c.11,.4,.48,.67,.89,.67,.71,0,1.47-.2,2.17-.33,.06-.01,.13-.03,.2-.04,.48,.1,1.04-.06,1.41-.6l2.17-3.29,2.37-.46-2.61,5.27c-.15,.3-.27,.69-.35,1.12l-1.96,7.01h-3.7l-.25-3.19c-.02-.25-.13-.48-.29-.65l-2.53-3.5,1.78-3.71Z"/></g></g></g></svg>