<?xml version="1.0" encoding="UTF-8"?><svg xmlns="http://www.w3.org/2000/svg" viewBox="0 0 24.75 39.73"><defs><style>.d{fill:#ef4136;}</style></defs><g id="a"/><g id="b"><g id="c"><g><path class="d" d="M14.04,4.95C11.75,1.72,9.21,.13,9.09,.09c-.25-.16-.53-.08-.69,.16-.16,.25-.08,.53,.16,.69,.04,.04,4.33,2.86,4.82,7.56,.37,3.39-1.31,6.95-4.9,10.54-3.76,3.76-5.52,7.6-5.23,11.4,.45,5.6,5.07,9.03,5.27,9.19,.08,.08,.2,.08,.29,.08,.16,0,.29-.04,.37-.16,.16-.2,.16-.49-.04-.69-1.84-1.84-2.7-3.51-2.66-5.07,.08-2.49,2.37-4.58,4.82-6.78,2.41-2.21,4.94-4.45,5.56-7.36,1.43-6.82-.74-11.77-2.82-14.71h0Z"/><path class="d" d="M20.33,13.94c-.25-.16-.53-.08-.69,.16-.16,.25-.08,.53,.16,.69,.04,0,2.21,1.47,2.45,3.84,.16,1.72-.65,3.51-2.53,5.35-2.04,2.04-2.98,4.13-2.82,6.21,.25,3.06,2.78,4.94,2.9,5.03,.08,.08,.2,.08,.29,.08,.16,0,.29-.04,.37-.16,.16-.2,.16-.49-.04-.69-.94-.94-1.35-1.76-1.35-2.49,.04-1.23,1.23-2.29,2.45-3.43,1.31-1.18,2.66-2.41,2.98-4.05,1.51-6.99-4.13-10.5-4.17-10.54h0Z"/><path class="d" d="M3.57,21.95c-.94-.94-1.35-1.76-1.35-2.49,.04-1.23,1.23-2.29,2.45-3.43,1.31-1.18,2.66-2.41,2.98-4.05C9.17,4.95,3.53,1.43,3.45,1.39c-.25-.16-.53-.08-.69,.16-.16,.25-.08,.53,.16,.69,.04,0,2.21,1.43,2.45,3.84,.16,1.72-.65,3.51-2.53,5.39C.79,13.53-.15,15.61,.02,17.7c.25,3.06,2.78,4.94,2.9,5.03,.08,.08,.2,.08,.29,.08,.16,0,.29-.04,.37-.16,.2-.2,.16-.53,0-.69h0Z"/></g></g></g></svg>